# xmcd CD database file
#
# Track frame offsets:
#	150
#	16775
#	32677
#
# Disc length: 652 seconds
#
# Revision: 1
# Processed by: cddbd v1.5.2PL0 Copyright (c) Steve Scherf et al.
# Submitted via: CDex 1.84
#
DISCID=15028a03
DTITLE=Enrique Iglesias - Be With You
DYEAR=2000
DGENRE=Pop
TTITLE0=Be With You (LP Version)
TTITLE1=Be With You (Video Edit)
TTITLE2=Solo Me Importas Tu (Be With You Spanish Version)
EXTD=YEAR: 2000
EXTT0=
EXTT1=
EXTT2=
PLAYORDER=
